<svg viewBox="0 0 64 64" xmlns="http://www.w3.org/2000/svg" fill-rule="evenodd" clip-rule="evenodd" stroke-linejoin="round" stroke-miterlimit="2">
                                        <path d="M-.123 0h63.587v63.451H-.123z" fill="#000"></path>
                                        <path d="M32.041 23.888h3.464V11.945h-3.464v11.943zm12.564-8.569c-.104-1.21-.776-1.806-2.066-1.806-.981
		                                 0-1.981.498-1.981 1.54 0 1.29 1.204 1.439 2.275 1.688 1.892.465 4.683.975 4.683
		                                 3.378 0 2.963-2.688 3.987-5.354 3.987-2.843 0-4.856-1.058-4.771-4.07h2.72c-.103
		                                 1.325.69 2.217 2.084 2.217 1.068 0 2.48-.316 2.48-1.588
		                                0-1.408-1.773-1.509-2.84-1.772-1.74-.413-4.115-1.177-4.115-3.293 0-2.732
		                                2.614-3.937 5.162-3.937 2.41 0 4.287 1.255 4.287
		                                3.656h-2.564zm10.029-2.396c-2.616 0-3.72 2.663-3.72 4.887 0 2.226 1.127 4.91
		                                3.77 4.91 2.76 0 3.812-2.586 3.812-4.961
		                                0-2.32-1.267-4.836-3.862-4.836zm3.882-.967h1.485c-.048.821 0 1.79 0
		                                2.733v7.281c0 2.42.082 4.959-2.584 6.218-.96.458-1.61.556-2.738.556-2.182
		                                0-4.778-.752-4.778-3.264h1.56c.171 1.449 1.874 1.932 3.41 1.932 1.873 0
		                                3.603-1.329 3.652-3.36l-.007-2.274c-.694 1.427-2.394 2.274-3.957 2.274-3.626
		                                0-5.185-2.783-5.185-6.12 0-3.292 1.464-6.34 5.138-6.34 1.752 0 3.046.848 4.004
		                                2.25v-1.887.001z" fill="#fff"></path>
                                    </svg>