<?xml version="1.0" encoding="UTF-8"?>
<svg id="Capa_1" height="20px" width="116px" xmlns="http://www.w3.org/2000/svg" viewBox="0 0 117.07 20.12"><defs><style>.cls-1{fill:#ea0029;}.cls-2{fill:#960048;}</style></defs><g><path class="cls-2" d="M53.62,4.18V14.59q0,.64,1.28,.85v.43h-4.25v-.43q1.28-.21,1.28-.85V4.36l-4.06,11.62h-.78l-4.32-11.35V14.59c0,.64,.07,.64,1.4,.85v.43h-3.4v-.43c1.33-.21,1.42-.21,1.42-.85V4.18c0-.64-.09-.64-1.42-.85v-.43h3.22l4.04,10.73,3.77-10.73h3.1v.43q-1.28,.21-1.28,.85Z"/><path class="cls-2" d="M63.79,11.4c0,2.5-1.2,4.68-3.95,4.68s-3.97-2.18-3.97-4.68,1.19-4.68,3.97-4.68,3.95,2.2,3.95,4.68Zm-6.13,0c0,2.69,.51,4.21,2.18,4.21s2.18-1.52,2.18-4.21-.57-4.23-2.18-4.23-2.18,1.54-2.18,4.23Z"/><path class="cls-2" d="M64.76,15.44q1.08-.21,1.08-.85v-5.95q0-.64-1.08-.85v-.43l2.39-.64h.21l.12,2.28c.48-1.56,1.56-2.28,2.48-2.28,.71,0,1.03,.46,1.03,.96s-.34,.94-.94,.94-.92-.46-.94-.99c-.69,.27-1.63,1.4-1.63,3.77v3.19q0,.64,1.43,.85v.43h-4.16v-.43Z"/><path class="cls-2" d="M72.48,14.29V7.49h-1.08v-.43c1.28-.16,1.93-.48,2.3-2.46h.43v2.34h2.23v.55h-2.23v6.62c0,.81,.41,1.13,1.01,1.13,.43,0,.87-.14,1.22-.39l.21,.34c-.58,.53-1.45,.89-2.25,.89-1.1,0-1.84-.6-1.84-1.79Z"/><path class="cls-2" d="M85.11,16.91c0,1.61-1.29,3.21-4.59,3.21-3.08,0-3.91-1.12-3.91-2.25,0-.74,.46-1.43,1.45-1.88-.41-.23-.87-.69-.87-1.49s.71-1.52,1.65-1.88c-1.08-.62-1.51-1.75-1.51-2.71,0-1.42,.92-3.19,3.51-3.19,.66,0,1.2,.12,1.66,.32l2.55-.32v.9h-1.65c.66,.64,.94,1.51,.94,2.28,0,1.4-.94,3.19-3.51,3.19-.62,0-1.13-.11-1.58-.28-.53,.28-.8,.67-.8,1.04,0,.41,.3,.73,.94,.73h2.82c1.93,0,2.89,1.08,2.89,2.32Zm-1.54,.66c0-.85-.43-1.45-1.61-1.45h-3.33c-.51,.5-.76,1.1-.76,1.61,0,1.12,.74,1.95,2.66,1.95,2.28,0,3.05-1.1,3.05-2.11Zm-4.52-7.65c0,1.36,.3,2.73,1.79,2.73s1.77-1.36,1.77-2.73-.28-2.74-1.77-2.74-1.79,1.38-1.79,2.74Z"/><path class="cls-2" d="M93.13,15.44v.43h-2.6l-.14-1.58c-.5,1.26-1.56,1.79-2.64,1.79-1.43,0-2.3-.94-2.3-2.14,0-3.38,4.94-1.86,4.94-4.82,0-1.17-.58-1.95-1.89-1.95-.85,0-1.45,.27-1.72,.53,.37,.18,.76,.39,.76,.96,0,.44-.39,.76-.87,.76s-.85-.32-.85-.85c0-.78,.97-1.84,2.9-1.84,2.25,0,3.31,.81,3.31,2.6v5.26q0,.64,1.1,.85Zm-2.74-4.99c-.8,1.28-3.19,1.03-3.19,3.15,0,.89,.41,1.59,1.33,1.59,1.43,0,1.86-1.61,1.86-2.89v-1.86Z"/><path class="cls-2" d="M101.92,16.91c0,1.61-1.29,3.21-4.59,3.21-3.08,0-3.91-1.12-3.91-2.25,0-.74,.46-1.43,1.45-1.88-.41-.23-.87-.69-.87-1.49s.71-1.52,1.65-1.88c-1.08-.62-1.51-1.75-1.51-2.71,0-1.42,.92-3.19,3.51-3.19,.66,0,1.2,.12,1.66,.32l2.55-.32v.9h-1.65c.66,.64,.94,1.51,.94,2.28,0,1.4-.94,3.19-3.51,3.19-.62,0-1.13-.11-1.58-.28-.53,.28-.8,.67-.8,1.04,0,.41,.3,.73,.94,.73h2.82c1.93,0,2.89,1.08,2.89,2.32Zm-1.54,.66c0-.85-.43-1.45-1.61-1.45h-3.33c-.51,.5-.76,1.1-.76,1.61,0,1.12,.74,1.95,2.66,1.95,2.28,0,3.05-1.1,3.05-2.11Zm-4.52-7.65c0,1.36,.3,2.73,1.79,2.73s1.77-1.36,1.77-2.73-.28-2.74-1.77-2.74-1.79,1.38-1.79,2.74Z"/><path class="cls-2" d="M109.34,13.26h.43c-.3,1.4-1.22,2.82-3.29,2.82-2.74,0-4.02-2.21-4.02-4.68,0-2.76,1.68-4.68,4.07-4.68,2.55,0,3.45,1.74,3.45,4.06h-5.72c-.02,.18-.02,.37-.02,.57,0,2.5,1.2,3.79,2.73,3.79,1.26,0,2.05-.74,2.37-1.88Zm-5.05-2.92h4c0-1.79-.27-3.17-1.72-3.17-1.17,0-2.09,.96-2.28,3.17Z"/><path class="cls-2" d="M117.07,13.37c0,1.43-1.13,2.71-3.42,2.71-1.2,0-2.07-.21-2.85-.43v-2.02h.43c.5,1.56,1.36,1.98,2.44,1.98,1.19,0,1.95-.64,1.95-1.65,0-2.23-4.6-1.91-4.6-4.91,0-1.42,1.2-2.34,3.06-2.34,1.01,0,1.77,.18,2.67,.43v2.02h-.43c-.48-1.52-1.15-2-2.25-2s-1.59,.5-1.59,1.33c0,2.18,4.59,1.79,4.59,4.87Z"/></g><g><path class="cls-1" d="M10.58,8.54c0,2.38-1.33,3.91-3.36,3.91s-3.34-1.53-3.34-3.91V.17H0V8.47c0,4.83,2.79,7.6,7.22,7.6s7.25-2.77,7.25-7.6V.17h-3.89V8.54Z"/><rect class="cls-1" x="33.39" y=".16" width="3.86" height="15.7"/><path class="cls-1" d="M20.51,7.87v-.36c0-2.38,1.3-3.91,3.34-3.91,0,0,0,0,.01,0h.13s0,0,.01,0c1.48,0,2.85,.82,3.21,2.16h3.93c-.63-3.69-3.24-5.76-7.07-5.76,0,0,0,0-.01,0h-.13s0,0-.01,0c-4.44,0-7.22,2.77-7.22,7.6v.84c0,4.83,2.79,7.6,7.22,7.6,0,0,0,0,.01,0h.13s0,0,.01,0c3.84,0,6.44-2.07,7.07-5.76h-3.93c-.36,1.35-1.74,2.16-3.21,2.16,0,0,0,0-.01,0h-.13s0,0-.01,0c-2.03,0-3.34-1.53-3.34-3.91v-.66Z"/></g></svg>