<?xml version="1.0" encoding="UTF-8"?>
<svg width="114px" height="29px" viewBox="0 0 114 29" version="1.1" xmlns="http://www.w3.org/2000/svg">
    <title>logo/zurich/horizonal</title>
    <g id="Page-1" stroke="none" stroke-width="1" fill="none" fill-rule="evenodd">
        <g id="logo" fill="#2167AE" transform="translate(0.000000, -0.000000)">
            <path d="M13.9985052,0.7343 C6.26789814,0.7343 0,7.00343633 0,14.7320581 C0,17.9252896 1.0688164,20.8704162 2.86711868,23.2236776 L14.5045112,7.93383027 L13.2578079,7.93383027 L12.0088623,7.93383027 C10.6814372,7.93383027 9.43697614,8.02350679 8.53857242,8.20061792 C7.99295286,8.30598784 7.50787465,8.50327619 7.11248732,8.78202072 C6.64534729,9.11008734 6.06684107,9.79760736 5.68714964,10.4761597 C5.6452939,10.5538794 5.57727831,10.6749427 5.49954621,10.8363604 L4.81640062,10.6839103 L5.95696973,6.29274988 L20.5362234,6.29274988 L8.9511505,21.7798856 C9.70380652,21.7111336 10.0050184,21.6961875 10.6164113,21.6961875 C11.0842988,21.6961875 11.7965939,21.724585 12.7577812,21.7828748 L14.8131974,21.9046854 C15.554642,21.9510183 16.1794885,21.9726901 16.6533554,21.9726901 C17.7169398,21.9726901 18.4098019,21.8919812 19.0922001,21.6804941 C19.6228712,21.5168344 20.1311195,21.2747078 20.5900379,20.9578508 C21.4077198,20.3973725 22.1947574,19.4931342 22.6678768,18.5881486 C22.7142171,18.4999667 22.7912018,18.3587262 22.8756607,18.1733947 L23.4937804,18.3340651 C23.2964604,19.0978102 23.1850942,19.3900062 22.8801452,20.0790208 C22.2590358,21.4690069 21.5564572,22.4001482 20.5900379,23.1145712 C19.5982062,23.850666 18.4987454,24.2093721 17.2004698,24.2280547 L17.0024024,24.2325385 C16.0367306,24.2325385 15.2930436,24.1518296 12.9924724,23.799102 C10.6470557,23.4396486 9.45566174,23.3170906 8.27772142,23.3170906 C7.48918904,23.3170906 6.75521862,23.3753804 5.99508836,23.5001802 C4.9927927,23.6645872 4.59591052,23.7789247 3.6818109,24.194426 C6.24024345,26.9848605 9.91682238,28.7343 13.9985052,28.7343 C21.7321019,28.7343 28,22.4681529 28,14.7320581 C28,7.00343633 21.7321019,0.7343 13.9985052,0.7343" id="Fill-1"></path>
            <path d="M61.9904,8.6761 C62.0764,8.8171 62.1434,8.9651 62.1884,9.1231 C62.2774,9.4411 62.3034,9.7581 62.3034,10.4991 L62.3034,15.4921 C62.3034,16.5661 62.2744,17.1951 62.1934,17.7171 C62.1404,18.0651 62.0224,18.3951 61.8504,18.6811 C61.5264,19.2171 60.9284,19.6261 60.2154,19.8051 C59.9274,19.8761 59.6094,19.9091 59.2724,19.9091 C58.1354,19.9091 57.1524,19.4921 56.6794,18.8001 C56.3124,18.2641 56.2084,17.7561 56.1914,16.4011 L56.1784,15.3211 L56.1784,11.3621 C56.1784,10.5991 56.1854,10.2301 56.2134,9.8381 C56.2294,9.6031 56.2644,9.4031 56.3124,9.2381 C56.4054,8.9341 56.6314,8.5321 56.8484,8.2851 C56.8734,8.2591 56.9084,8.2231 56.9574,8.1731 L52.6364,8.1731 C52.9024,8.3851 52.9904,8.4871 53.1164,8.7041 C53.2034,8.8441 53.2654,8.9971 53.3054,9.1581 C53.3594,9.3581 53.3904,9.5611 53.3954,9.7641 C53.3984,9.8921 53.4014,10.1641 53.4044,10.5781 L53.4044,15.0991 C53.4044,16.4901 53.4174,16.8501 53.4594,17.4111 C53.5394,18.3641 53.8354,19.1311 54.3904,19.8271 C55.4014,21.0751 57.0144,21.7351 59.0804,21.7351 C60.0694,21.7351 61.0194,21.5851 61.7514,21.3211 C62.5144,21.0361 63.2254,20.5711 63.7254,20.0151 C64.3444,19.3361 64.6984,18.4951 64.8054,17.4661 C64.8654,16.8651 64.8944,16.1521 64.8944,15.1181 L64.8944,11.3421 L64.8884,10.5991 L64.8884,10.4471 C64.8884,9.8801 64.9144,9.5511 64.9934,9.2511 C65.0424,9.0591 65.1204,8.8811 65.2234,8.7171 C65.3674,8.4901 65.4624,8.3881 65.7434,8.1731 L61.5074,8.1731 C61.7634,8.3701 61.8534,8.4651 61.9904,8.6761 L61.9904,8.6761 Z M73.9424,13.9511 C73.4664,14.2251 72.9844,14.3811 72.2654,14.4821 C71.9934,14.5221 71.7664,14.5441 71.5754,14.5441 C71.5054,14.5441 71.4604,14.5401 71.3574,14.5331 L71.3574,9.6751 C71.5254,9.6681 71.5974,9.6681 71.7044,9.6681 C72.3584,9.6681 72.9924,9.7451 73.4954,9.8871 C73.8304,9.9821 74.1364,10.1461 74.3924,10.3591 C74.8474,10.7361 75.0814,11.2881 75.0814,11.9761 C75.0814,12.5681 74.9024,13.0761 74.5644,13.4551 C74.3994,13.6381 74.1914,13.8041 73.9424,13.9511 L73.9424,13.9511 Z M79.0154,20.3851 C78.5474,19.9481 78.1304,19.5281 77.5114,18.8601 C77.1174,18.4421 76.7924,18.0851 76.5444,17.7911 L74.4794,15.3931 C74.7344,15.3161 74.8344,15.2811 75.0684,15.1931 C75.7334,14.9281 76.2404,14.6411 76.7024,14.2541 C77.2294,13.8171 77.5584,13.3481 77.7544,12.7541 C77.8614,12.4261 77.9154,12.0881 77.9154,11.7451 C77.9154,10.9381 77.6124,10.2101 77.0154,9.5881 C76.4674,9.0271 75.7054,8.6101 74.8584,8.4101 C74.2604,8.2721 73.6404,8.2111 72.5844,8.1811 C72.1864,8.1731 71.7794,8.1661 71.3524,8.1661 L67.9214,8.1661 C68.1564,8.3781 68.2444,8.4711 68.3684,8.6621 C68.4714,8.8121 68.5484,8.9771 68.5994,9.1381 C68.6924,9.4351 68.7324,9.8381 68.7324,10.5361 L68.7324,19.1531 C68.7324,19.7761 68.6884,20.1361 68.5804,20.4211 C68.5224,20.5711 68.4434,20.7091 68.3464,20.8361 C68.2294,20.9931 68.1514,21.0721 67.9064,21.2941 L72.1324,21.2941 C71.9344,21.0921 71.8804,21.0261 71.7664,20.8681 C71.6704,20.7391 71.5944,20.6081 71.5374,20.4661 C71.4204,20.1801 71.3764,19.8641 71.3644,19.2561 C71.3604,19.0571 71.3574,18.8381 71.3574,18.5941 L71.3574,15.6471 L73.8214,18.5601 C73.9374,18.6971 74.1234,18.9101 74.3764,19.1981 C74.6604,19.5181 74.8744,19.7541 75.0204,19.9021 C75.4964,20.3851 75.9524,20.7381 76.3974,20.9781 C76.7774,21.1831 77.1364,21.2651 77.7144,21.2891 C77.9274,21.2941 78.1584,21.2941 78.4044,21.2941 L80.0734,21.2941 C79.8494,21.1211 79.7594,21.0471 79.5904,20.8991 C79.4094,20.7441 79.2174,20.5721 79.0154,20.3851 L79.0154,20.3851 Z M112.9684,10.5911 C112.9684,10.0151 113.0184,9.5681 113.1194,9.1991 C113.1634,9.0301 113.2344,8.8661 113.3284,8.7171 C113.4714,8.4901 113.5704,8.3851 113.8554,8.1661 L109.5174,8.1661 C109.7684,8.3721 109.8564,8.4671 110.0044,8.7001 C110.1034,8.8541 110.1744,9.0091 110.2284,9.1581 C110.3294,9.4681 110.3674,9.8511 110.3674,10.5361 L110.3674,13.7311 L104.4084,13.7311 L104.4084,11.3311 C104.4084,10.6071 104.4184,10.1311 104.4474,9.7801 C104.4604,9.5641 104.4944,9.3701 104.5504,9.2051 C104.6484,8.9221 104.8854,8.5321 105.1034,8.3091 C105.1364,8.2751 105.1844,8.2301 105.2534,8.1661 L100.9924,8.1661 C101.2504,8.4261 101.3164,8.5031 101.4344,8.6721 C101.5224,8.8061 101.5994,8.9551 101.6574,9.1161 C101.7774,9.4471 101.7944,9.6291 101.8064,10.5061 L101.8154,11.3361 L101.8154,18.5241 C101.8154,19.2561 101.8024,19.5771 101.7634,19.9071 C101.7444,20.0791 101.6974,20.2531 101.6324,20.4261 C101.5204,20.7121 101.3694,20.9391 101.1204,21.1661 C101.0924,21.1951 101.0404,21.2371 100.9714,21.2941 L105.1764,21.2941 C104.9964,21.1081 104.9334,21.0291 104.8234,20.8631 C104.7414,20.7381 104.6764,20.5991 104.6154,20.4511 C104.4754,20.1091 104.4334,19.8631 104.4184,19.3041 C104.4144,19.0261 104.4084,18.7651 104.4084,18.5191 L104.4084,15.3381 L110.3674,15.3381 L110.3674,18.5401 C110.3674,19.2491 110.3564,19.5091 110.3104,19.8801 C110.2834,20.0791 110.2364,20.2681 110.1684,20.4411 C110.0744,20.6851 109.9164,20.9131 109.6904,21.1311 C109.6524,21.1661 109.5864,21.2201 109.5044,21.2941 L113.7514,21.2941 C113.5734,21.1241 113.5124,21.0471 113.3914,20.8911 C113.2884,20.7441 113.2034,20.5991 113.1464,20.4541 C113.0144,20.1541 112.9814,19.9191 112.9684,19.2721 C112.9664,18.8891 112.9614,18.6631 112.9614,18.5921 L112.9684,11.3681 L112.9684,10.5911 Z M97.3274,19.3981 C96.5244,19.7331 95.7934,19.8841 95.0084,19.8841 C93.6314,19.8841 92.4554,19.4001 91.5864,18.4721 C90.7264,17.5501 90.2554,16.2781 90.2554,14.8341 C90.2554,13.4581 90.6884,12.1821 91.4574,11.2881 C91.7914,10.9021 92.1984,10.5741 92.6664,10.3191 C93.4124,9.9041 94.2844,9.6871 95.2324,9.6871 C96.0484,9.6871 96.8314,9.8431 97.6214,10.1641 C98.1124,10.3591 98.2924,10.4571 98.7134,10.7561 L98.7134,8.2851 C98.3914,8.1811 98.2594,8.1481 97.9054,8.0691 C97.1394,7.9091 96.4044,7.8361 95.5654,7.8361 C94.1384,7.8361 92.9074,8.0621 91.7794,8.5321 C91.1074,8.8121 90.4944,9.1731 89.9544,9.6031 C88.3134,10.9081 87.4254,12.7981 87.4254,14.9731 C87.4254,17.0811 88.2814,18.9051 89.8554,20.1341 C91.1474,21.1391 92.8154,21.6521 94.8184,21.6521 C96.0674,21.6521 97.2334,21.4661 98.5474,21.0591 C98.5934,21.0441 98.6654,21.0231 98.7634,20.9931 L98.7634,18.6081 C98.4434,18.8181 98.3364,18.8891 98.1404,18.9971 C97.8844,19.1431 97.6144,19.2791 97.3274,19.3981 L97.3274,19.3981 Z M84.5734,10.6011 C84.5794,9.7231 84.6044,9.4801 84.7134,9.1231 C84.7614,8.9821 84.8264,8.8421 84.9034,8.7101 C85.0424,8.4871 85.1384,8.3851 85.4044,8.1661 L81.1374,8.1661 C81.4194,8.4041 81.5034,8.4981 81.6324,8.6851 C81.7204,8.8201 81.7954,8.9631 81.8394,9.1131 C81.9364,9.4311 81.9704,9.7451 81.9764,10.5281 C81.9764,10.9241 81.9804,11.1901 81.9804,11.3171 L81.9804,19.1781 C81.9804,19.6391 81.8964,20.1301 81.7704,20.4451 C81.7124,20.5821 81.6454,20.7091 81.5574,20.8301 C81.4594,20.9781 81.3864,21.0571 81.1534,21.2941 L85.3684,21.2941 C85.1614,21.1181 85.0904,21.0361 84.9564,20.8301 C84.8744,20.7051 84.8064,20.5711 84.7514,20.4281 C84.6384,20.1341 84.5694,19.6951 84.5694,19.2791 L84.5694,11.3681 L84.5734,10.6011 Z M47.4174,19.4561 C46.8274,19.5601 46.1644,19.6171 45.3304,19.6391 C45.0534,19.6461 44.6984,19.6501 44.2674,19.6501 L42.2314,19.6501 L50.2894,8.1661 L39.8344,8.1661 L38.5514,10.9651 C38.9804,10.7431 39.1504,10.6641 39.5254,10.5141 C40.1184,10.2851 40.7734,10.1011 41.4074,9.9951 C41.9504,9.8971 42.4584,9.8551 43.2764,9.8281 C43.6454,9.8221 43.9864,9.8191 44.3084,9.8191 L45.8564,9.8191 L37.7254,21.2941 L49.2194,21.2941 L50.5454,18.2991 C50.0844,18.5601 49.9164,18.6501 49.5694,18.8101 C48.8994,19.1041 48.1704,19.3261 47.4174,19.4561 L47.4174,19.4561 Z" id="Fill-2"></path>
        </g>
    </g>
</svg>